<svg width="83.548" height="16.769" viewBox="0 0 83.548 16.769" xmlns="http://www.w3.org/2000/svg"><g id="svgGroup" stroke-linecap="round" fill-rule="evenodd" font-size="9pt" stroke="#0a2540" stroke-width="0" fill="#0a2540" style="stroke:#0a2540;stroke-width:0;fill:#0a2540"><path d="M 50.562 13.43 L 49.795 14.005 L 48.932 13.238 L 48.932 8.012 L 49.9 7.227 L 49.547 6.792 L 48.705 7.475 L 46.439 5.529 L 44.241 7.247 L 42.7 5.529 L 39.92 7.446 L 40.208 7.829 L 40.975 7.35 L 41.742 8.213 L 41.742 13.526 L 40.975 14.197 L 43.275 16.018 L 45.193 14.293 L 44.33 13.526 L 44.33 8.035 L 45.193 7.35 L 46.631 8.596 L 46.631 13.526 L 45.96 14.197 L 47.973 16.018 L 50.945 14.005 L 50.562 13.43 Z M 5.727 0.37 L 5.437 0 A 8.687 8.687 0 0 0 1.067 3.977 C 0.258 5.515 -0.089 7.283 0.019 9.018 A 9.138 9.138 0 0 0 1.707 13.877 C 2.273 14.642 2.995 15.302 3.842 15.736 A 5.09 5.09 0 0 0 6.153 16.298 C 6.305 16.298 6.456 16.291 6.607 16.277 C 7.408 16.201 8.185 15.928 8.885 15.533 A 9.003 9.003 0 0 0 10.787 14.057 A 11.28 11.28 0 0 0 13.037 10.927 A 8.39 8.39 0 0 0 13.872 7.346 A 7.511 7.511 0 0 0 13.872 7.278 C 13.861 6.02 13.532 4.764 12.917 3.667 C 12.106 2.218 10.794 1.056 9.257 0.427 L 3.478 2.911 C 3.491 2.888 3.504 2.864 3.517 2.84 C 4.055 1.864 4.815 1.01 5.727 0.37 Z M 68.936 6.082 L 66.5 7.58 L 66.5 13.728 L 69.385 15.707 L 73.77 13.117 L 73.779 7.448 L 74.635 6.754 L 74.282 6.319 L 73.543 6.919 L 66.645 0.85 L 66.645 4.437 L 67.053 4.367 L 68.936 6.082 Z M 21.653 14.436 L 22.538 13.719 L 25.505 15.922 L 29.628 12.567 L 29.34 12.088 L 27.135 13.813 L 24.738 12.184 L 24.738 11.321 L 29.052 8.636 L 29.052 8.541 L 27.039 5.473 L 22.246 7.965 L 22.246 13.235 L 21.3 14.002 L 21.653 14.436 Z M 75.573 14.436 L 76.458 13.719 L 79.425 15.922 L 83.548 12.567 L 83.26 12.088 L 81.055 13.813 L 78.658 12.184 L 78.658 11.321 L 82.972 8.636 L 82.972 8.541 L 80.959 5.473 L 76.166 7.965 L 76.166 13.235 L 75.22 14.002 L 75.573 14.436 Z M 39.241 13.526 L 38.379 14.101 L 37.42 13.142 L 37.42 8.099 L 38.464 7.252 L 38.111 6.817 L 37.303 7.472 L 34.352 5.569 L 32.147 6.719 C 31.914 6.841 31.682 6.971 31.484 7.145 A 1.783 1.783 0 0 0 31.037 7.726 A 1.482 1.482 0 0 0 30.898 8.35 C 30.898 8.381 30.899 8.413 30.901 8.445 C 30.919 8.71 31.013 8.969 31.156 9.193 C 31.428 9.619 31.861 9.918 32.318 10.135 A 5.593 5.593 0 0 0 32.616 10.266 C 32.146 10.51 31.701 10.803 31.304 11.152 A 3.694 3.694 0 0 0 30.568 12.006 A 2.356 2.356 0 0 0 30.224 13.072 A 1.993 1.993 0 0 0 30.22 13.191 A 2.382 2.382 0 0 0 30.78 14.68 C 31.305 15.318 32.095 15.72 32.914 15.827 L 35.025 14.292 L 36.552 15.822 L 39.336 13.91 L 39.241 13.526 Z M 59.09 5.527 L 58.525 5.527 L 58.517 5.527 A 0.923 0.923 0 0 1 58.168 6.148 A 1.059 1.059 0 0 1 57.551 6.36 A 1.152 1.152 0 0 1 57.536 6.36 C 57.31 6.364 57.086 6.305 56.881 6.208 A 2.097 2.097 0 0 1 56.056 5.487 L 51.923 7.887 L 51.923 10.687 L 53.436 11.88 A 18.454 18.454 0 0 0 52.943 12.35 A 5.121 5.121 0 0 0 51.719 14.002 A 2.723 2.723 0 0 0 51.648 14.203 A 2.363 2.363 0 0 0 51.54 14.858 C 51.535 15.153 51.586 15.448 51.702 15.719 C 51.905 16.194 52.304 16.583 52.785 16.769 L 52.98 16.244 C 52.867 16.18 52.778 16.075 52.732 15.954 C 52.706 15.885 52.695 15.812 52.696 15.739 A 0.637 0.637 0 0 1 52.738 15.52 C 52.791 15.382 52.889 15.264 53.01 15.178 A 1.063 1.063 0 0 1 53.578 14.993 A 1.252 1.252 0 0 1 53.597 14.992 A 1.298 1.298 0 0 1 53.606 14.992 C 53.617 14.991 53.628 14.991 53.639 14.991 A 1.504 1.504 0 0 1 54.206 15.108 A 1.887 1.887 0 0 1 55.12 15.927 L 59.068 13.527 L 59.068 10.507 L 57.348 9.233 A 5.253 5.253 0 0 0 57.954 8.612 A 4.448 4.448 0 0 0 58.534 7.659 A 6.84 6.84 0 0 0 59.09 5.527 Z M 19.29 13.627 L 20.443 12.793 L 20.703 13.143 L 17.76 15.727 L 17.48 15.727 L 14.46 13.669 L 14.46 7.689 L 18.59 5.387 L 20.71 7.087 L 18.81 8.527 L 17.03 7.047 L 17.03 12.247 C 17.259 12.668 17.606 13.025 18.02 13.267 C 18.404 13.491 18.845 13.616 19.29 13.627 Z M 65.432 13.43 L 64.569 14.005 L 63.898 13.334 L 63.898 7.294 L 62.364 5.473 L 59.68 7.294 L 59.968 7.678 L 60.735 7.198 L 61.406 8.061 L 61.406 13.334 L 60.159 14.197 L 60.447 14.58 L 61.118 14.101 L 63.035 15.827 L 65.911 13.813 L 65.432 13.43 Z M 3.173 10.702 L 6.952 9.112 L 6.953 2.075 L 6.999 2.057 C 7.301 2.232 7.595 2.422 7.88 2.626 C 7.88 6.449 7.88 10.273 7.88 14.096 C 7.875 14.096 7.871 14.096 7.867 14.097 A 3.865 3.865 0 0 1 7.692 14.102 C 7.148 14.105 6.604 13.995 6.099 13.789 A 4.853 4.853 0 0 1 4.597 12.8 A 6.379 6.379 0 0 1 3.173 10.702 Z M 69.08 6.213 L 71.2 8.143 L 71.2 14.153 L 69.08 12.679 L 69.08 6.213 Z M 3.123 3.666 L 4.372 3.147 C 4.372 5.302 4.372 7.458 4.372 9.613 L 2.979 10.207 C 2.958 10.147 2.937 10.088 2.918 10.028 C 2.579 8.99 2.442 7.891 2.477 6.8 A 9.959 9.959 0 0 1 2.478 6.789 A 9.11 9.11 0 0 1 3.123 3.666 Z M 8.453 10.212 L 11.767 8.539 A 6.259 6.259 0 0 1 11.827 9.322 C 11.838 10.21 11.654 11.099 11.237 11.88 A 4.322 4.322 0 0 1 9.844 13.437 A 3.964 3.964 0 0 1 8.453 14.021 C 8.453 12.751 8.453 11.482 8.453 10.212 Z M 55.38 10.925 L 56.488 11.808 L 56.488 14.413 C 56.237 13.861 55.791 13.398 55.246 13.132 A 2.503 2.503 0 0 0 54.153 12.876 C 54.089 12.876 54.024 12.879 53.961 12.884 A 2.246 2.246 0 0 0 52.766 13.345 A 8.569 8.569 0 0 1 53.343 12.743 A 29.142 29.142 0 0 1 54.661 11.542 L 55.38 10.925 Z M 11.003 6.184 L 8.453 7.471 C 8.453 6.003 8.453 4.535 8.453 3.066 A 10.433 10.433 0 0 1 10.157 4.84 A 9.228 9.228 0 0 1 11.003 6.184 Z M 55.33 10.23 L 54.503 9.385 L 54.503 6.78 A 2.39 2.39 0 0 0 55.745 8.062 A 2.351 2.351 0 0 0 56.683 8.258 C 56.785 8.259 56.888 8.252 56.99 8.238 A 2.301 2.301 0 0 0 57.687 8.028 A 3.608 3.608 0 0 1 57.505 8.274 A 5.473 5.473 0 0 1 56.803 8.965 L 55.33 10.23 Z M 32.435 7.007 L 34.927 8.541 C 34.927 9.166 34.927 9.791 34.927 10.417 A 17.068 17.068 0 0 1 33.85 10.122 A 8.342 8.342 0 0 1 32.734 9.701 A 2.709 2.709 0 0 1 31.774 9.007 A 1.255 1.255 0 0 1 31.476 8.253 A 1.019 1.019 0 0 1 31.476 8.233 A 1.124 1.124 0 0 1 31.624 7.685 A 1.469 1.469 0 0 1 32.016 7.244 A 1.804 1.804 0 0 1 32.435 7.007 Z M 60.765 2.774 L 62.47 4.716 L 64.38 3.039 L 62.675 1.097 L 60.765 2.774 Z M 34.927 12.517 A 144794.72 144794.72 0 0 0 34.927 10.995 A 116.76 116.76 0 0 0 34.117 10.753 A 253.163 253.163 0 0 1 33.744 10.642 A 106.74 106.74 0 0 1 33.655 10.616 A 16.15 16.15 0 0 1 32.965 10.397 A 2.326 2.326 0 0 0 32.654 11.24 A 2.522 2.522 0 0 0 32.622 11.64 C 32.622 12.115 32.751 12.592 32.974 13.013 C 33.108 13.268 33.28 13.506 33.497 13.696 C 33.713 13.887 33.977 14.027 34.26 14.08 A 1.384 1.384 0 0 0 34.511 14.103 A 1.381 1.381 0 0 0 34.927 14.039 A 144794.72 144794.72 0 0 1 34.927 12.517 Z M 24.738 10.833 L 24.738 7.222 L 25.122 7.007 L 26.847 9.499 L 24.738 10.833 Z M 78.658 10.833 L 78.658 7.222 L 79.042 7.007 L 80.767 9.499 L 78.658 10.833 Z M 8.453 8.113 L 11.246 6.703 A 7.487 7.487 0 0 1 11.658 7.952 L 8.453 9.57 L 8.453 8.113 Z" vector-effect="non-scaling-stroke"/></g></svg>